<svg version="1.1" xmlns="http://www.w3.org/2000/svg" xmlns:xlink="http://www.w3.org/1999/xlink" width="100px" height="100px" viewBox="0,0,256,256">
  <g fill="none" fill-rule="nonzero" stroke="none" stroke-width="1" stroke-linecap="butt" stroke-linejoin="miter" stroke-miterlimit="10" stroke-dasharray="" stroke-dashoffset="0" font-family="none" font-weight="none" font-size="none" text-anchor="none" style="mix-blend-mode: normal">
    <g transform="scale(2.56,2.56)">
      <path d="M26.887,75.933h-3.946c-2.491,0 -4.51,2.019 -4.51,4.51c0,2.49 2.019,4.51 4.51,4.51h3.946c3.983,0 7.007,-2.238 9.637,-4.65l-4.875,-7.8c-1.724,1.657 -3.621,3.43 -4.762,3.43z" fill="#006cf1"></path>
      <path d="M26.887,86.08h-3.946c-3.109,0 -5.637,-2.529 -5.637,-5.637c0,-3.109 2.529,-5.638 5.637,-5.638h3.946c0.748,-0.011 3.097,-2.266 3.982,-3.115l1,-0.961l6.109,9.772l-0.691,0.634c-2.667,2.445 -5.989,4.945 -10.4,4.945zM22.941,77.061c-1.866,0 -3.382,1.517 -3.382,3.382c0,1.865 1.517,3.382 3.382,3.382h3.946c3.291,0 5.885,-1.721 8.179,-3.729l-3.642,-5.827c-1.762,1.636 -3.252,2.791 -4.536,2.791h-3.947z" fill="#303030"></path>
      <path d="M31.901,72.262c-0.082,0.08 -0.168,0.161 -0.251,0.241l4.875,7.8c0.558,-0.511 1.099,-1.031 1.627,-1.538c3.292,-3.165 5.506,-5.087 8.466,-5.087v-9.02c-6.807,0 -11.378,4.395 -14.717,7.604z" fill="#006cf1"></path>
      <path d="M36.287,82.051l-6.079,-9.727l0.912,-0.875c3.476,-3.342 8.237,-7.919 15.498,-7.919h1.127v11.275h-1.127c-2.538,0 -4.596,1.803 -7.684,4.772c-0.535,0.514 -1.082,1.039 -1.647,1.557zM33.091,72.683l3.663,5.86c0.208,-0.198 0.414,-0.395 0.618,-0.591c3.005,-2.889 5.291,-4.896 8.119,-5.318v-6.804c-5.493,0.439 -9.436,4.014 -12.4,6.853z" fill="#303030"></path>
      <path d="M61.335,72.262c-3.339,-3.209 -7.91,-7.604 -14.717,-7.604v9.02c2.961,0 5.174,1.922 8.466,5.087c0.528,0.508 1.07,1.027 1.628,1.538l4.875,-7.8c-0.084,-0.08 -0.169,-0.161 -0.252,-0.241z" fill="#006cf1"></path>
      <path d="M56.95,82.051l-1,-0.917c-0.565,-0.518 -1.112,-1.043 -1.646,-1.557c-3.09,-2.969 -5.147,-4.772 -7.686,-4.772h-1.128v-11.275h1.128c7.262,0 12.023,4.577 15.499,7.919l0.911,0.875zM47.746,72.633c2.829,0.422 5.114,2.43 8.121,5.319c0.204,0.196 0.408,0.393 0.617,0.591l3.662,-5.86c-2.963,-2.839 -6.906,-6.414 -12.399,-6.853v6.803z" fill="#303030"></path>
      <path d="M70.296,75.933h-3.946c-1.14,0 -3.037,-1.773 -4.762,-3.429l-4.875,7.8c2.631,2.412 5.654,4.65 9.637,4.65h3.946c2.49,0 4.51,-2.02 4.51,-4.51c0,-2.492 -2.02,-4.511 -4.51,-4.511z" fill="#006cf1"></path>
      <path d="M70.296,86.08h-3.946c-4.411,0 -7.732,-2.5 -10.399,-4.946l-0.691,-0.634l6.108,-9.772l1.001,0.961c0.884,0.849 3.234,3.104 3.981,3.115h3.946c3.109,0 5.637,2.529 5.637,5.638c0,3.109 -2.529,5.638 -5.637,5.638zM58.171,80.097c2.293,2.007 4.887,3.729 8.178,3.729h3.946c1.865,0 3.382,-1.518 3.382,-3.382c0,-1.866 -1.517,-3.382 -3.382,-3.382h-3.946c-1.285,0 -2.775,-1.155 -4.536,-2.791z" fill="#303030"></path>
      <path d="M24.631,43.179l-3.781,-1.13c-2.386,-0.713 -4.899,0.644 -5.612,3.031c-0.713,2.386 0.644,4.899 3.031,5.612l3.781,1.13c3.816,1.14 7.354,-0.139 10.565,-1.697l-2.439,-8.869c-2.127,1.093 -4.452,2.249 -5.545,1.923z" fill="#ff3f58"></path>
      <path d="M25.036,53.382c-1.076,0 -2.18,-0.144 -3.309,-0.481l-3.781,-1.129c-2.978,-0.889 -4.678,-4.036 -3.789,-7.015c0.891,-2.979 4.036,-4.679 7.015,-3.788l3.781,1.13c0.715,0.2 3.617,-1.286 4.707,-1.845l1.235,-0.635l3.055,11.111l-0.843,0.41c-2.386,1.157 -5.118,2.242 -8.071,2.242zM19.561,42.988c-1.456,0 -2.805,0.949 -3.243,2.415c-0.533,1.786 0.487,3.675 2.274,4.209l3.781,1.129c3.153,0.942 6.131,0.034 8.903,-1.231l-1.821,-6.625c-2.156,1.063 -3.915,1.744 -5.146,1.375l-3.781,-1.13c-0.322,-0.096 -0.647,-0.142 -0.967,-0.142z" fill="#303030"></path>
      <path d="M30.487,41.097c-0.102,0.052 -0.207,0.106 -0.31,0.159l2.439,8.869c0.681,-0.331 1.349,-0.673 2,-1.009c4.06,-2.09 6.731,-3.298 9.568,-2.451l2.582,-8.643c-6.524,-1.947 -12.162,0.955 -16.279,3.075z" fill="#ff3f58"></path>
      <path d="M31.887,51.73l-3.041,-11.06l1.124,-0.575c4.288,-2.207 10.16,-5.231 17.117,-3.152l1.08,0.323l-3.227,10.803l-1.08,-0.323c-2.431,-0.726 -4.919,0.412 -8.729,2.373c-0.658,0.339 -1.334,0.686 -2.023,1.02zM31.506,41.841l1.832,6.663c0.255,-0.13 0.509,-0.26 0.76,-0.389c3.706,-1.908 6.471,-3.18 9.303,-2.773l1.947,-6.519c-5.39,-1.151 -10.191,1.145 -13.842,3.018z" fill="#303030"></path>
      <path d="M58.689,49.521c-2.28,-4.03 -5.403,-9.55 -11.925,-11.498l-2.582,8.643c2.837,0.847 4.407,3.322 6.656,7.297c0.361,0.638 0.731,1.29 1.119,1.94l6.903,-6.079c-0.056,-0.101 -0.114,-0.203 -0.171,-0.303z" fill="#ff3f58"></path>
      <path d="M51.684,57.645l-0.694,-1.165c-0.392,-0.657 -0.766,-1.317 -1.132,-1.962c-2.11,-3.729 -3.565,-6.046 -5.998,-6.772l-1.08,-0.322l3.227,-10.804l1.08,0.323c6.957,2.078 10.209,7.826 12.583,12.023l0.172,0.304l0.45,0.796zM45.562,45.987c2.59,1.214 4.205,3.792 6.258,7.42c0.14,0.245 0.279,0.493 0.421,0.743l5.187,-4.567c-2.026,-3.568 -4.782,-8.122 -9.919,-10.115z" fill="#303030"></path>
      <g>
        <path d="M66.224,55.602l-3.781,-1.129c-1.093,-0.327 -2.403,-2.568 -3.582,-4.649l-6.903,6.079c1.83,3.063 4.087,6.073 7.903,7.213l3.781,1.129c2.387,0.713 4.899,-0.644 5.612,-3.031c0.714,-2.386 -0.644,-4.899 -3.03,-5.612z" fill="#ff3f58"></path>
        <path d="M64.932,65.562c-0.534,0 -1.075,-0.077 -1.611,-0.237l-3.781,-1.129c-4.225,-1.262 -6.692,-4.608 -8.55,-7.715l-0.481,-0.806l8.649,-7.614l0.685,1.207c0.604,1.067 2.21,3.9 2.923,4.125l3.781,1.129c2.979,0.889 4.679,4.036 3.789,7.015c-0.731,2.443 -2.978,4.025 -5.404,4.025zM53.414,56.122c1.625,2.58 3.62,4.972 6.77,5.914l3.781,1.129c1.782,0.531 3.675,-0.485 4.209,-2.274c0.533,-1.786 -0.486,-3.674 -2.274,-4.209l-3.781,-1.129c-1.231,-0.368 -2.329,-1.901 -3.549,-3.972z" fill="#303030"></path>
      </g>
      <g>
        <path d="M58.978,20.163l-2.285,-3.217c-1.443,-2.031 -4.259,-2.507 -6.289,-1.065c-2.031,1.443 -2.507,4.259 -1.064,6.289l2.285,3.217c2.307,3.247 5.882,4.416 9.372,5.163l3.535,-8.491c-2.35,-0.446 -4.894,-0.966 -5.554,-1.896z" fill="#006cf1"></path>
        <path d="M61.678,31.85l-0.916,-0.196c-3.539,-0.758 -7.501,-2.018 -10.056,-5.613l-2.286,-3.218c-1.801,-2.533 -1.203,-6.06 1.331,-7.861c1.228,-0.872 2.72,-1.214 4.206,-0.962c1.484,0.251 2.782,1.065 3.655,2.293l2.286,3.216c0.443,0.604 3.641,1.213 4.844,1.442l1.365,0.259zM53.011,16.177c-0.679,0 -1.361,0.202 -1.955,0.624c-1.521,1.08 -1.878,3.196 -0.798,4.716l2.286,3.218c1.906,2.682 4.811,3.8 7.776,4.507l2.641,-6.344c-2.353,-0.488 -4.157,-1.035 -4.903,-2.082l-2.286,-3.217c-0.658,-0.927 -1.702,-1.422 -2.761,-1.422z" fill="#303030"></path>
        <path d="M64.874,22.125c-0.113,-0.021 -0.228,-0.044 -0.343,-0.066l-3.535,8.491c0.74,0.159 1.477,0.3 2.197,0.436c4.487,0.85 7.335,1.542 9.05,3.955l7.353,-5.224c-3.941,-5.548 -10.172,-6.729 -14.722,-7.592z" fill="#006cf1"></path>
        <path d="M71.978,36.514l-0.653,-0.919c-1.47,-2.069 -4.132,-2.703 -8.342,-3.501c-0.729,-0.139 -1.474,-0.281 -2.223,-0.441l-1.325,-0.284l4.407,-10.586l1.244,0.234c4.738,0.898 11.224,2.127 15.431,8.047l0.653,0.919zM62.565,29.719c0.282,0.054 0.562,0.108 0.839,0.161c4.096,0.776 7.056,1.477 9.039,3.539l5.546,-3.94c-3.54,-4.226 -8.738,-5.369 -12.768,-6.139z" fill="#303030"></path>
        <path d="M81.922,46.12c0.683,-4.58 1.618,-10.853 -2.324,-16.402l-7.353,5.224c1.715,2.413 1.43,5.331 0.756,9.848c-0.108,0.725 -0.218,1.467 -0.311,2.218l9.182,-0.543c0.016,-0.115 0.033,-0.232 0.05,-0.345z" fill="#006cf1"></path>
        <path d="M71.403,48.214l0.167,-1.345c0.095,-0.761 0.206,-1.512 0.315,-2.245c0.631,-4.238 0.909,-6.961 -0.561,-9.028l-0.653,-0.919l9.192,-6.531l0.653,0.919c4.205,5.919 3.231,12.451 2.521,17.22l-0.181,1.251zM81.872,46.465h0.011zM73.75,35.256c1.292,2.549 0.981,5.576 0.367,9.7c-0.042,0.279 -0.084,0.561 -0.124,0.845l6.898,-0.408c0.598,-4.06 1.228,-9.346 -1.596,-14.077z" fill="#303030"></path>
        <g>
          <path d="M84.119,55.55l-2.286,-3.217c-0.66,-0.93 -0.314,-3.503 0.037,-5.868l-9.182,0.543c-0.443,3.542 -0.515,7.302 1.791,10.549l2.286,3.217c1.443,2.031 4.258,2.507 6.289,1.065c2.031,-1.443 2.508,-4.259 1.065,-6.289z" fill="#006cf1"></path>
          <path d="M80.455,63.8c-0.316,0 -0.635,-0.026 -0.954,-0.08c-1.484,-0.251 -2.782,-1.066 -3.654,-2.293l-2.286,-3.216c-2.555,-3.596 -2.44,-7.751 -1.991,-11.342l0.116,-0.931l11.504,-0.68l-0.204,1.373c-0.18,1.212 -0.658,4.433 -0.233,5.05l2.286,3.217c1.8,2.533 1.202,6.06 -1.331,7.861c-0.965,0.684 -2.093,1.041 -3.253,1.041zM73.702,48.078c-0.307,3.032 -0.208,6.145 1.698,8.826l2.286,3.217c0.523,0.736 1.301,1.225 2.192,1.376c0.892,0.151 1.786,-0.054 2.523,-0.577c1.521,-1.08 1.879,-3.196 0.799,-4.716l-2.286,-3.217c-0.744,-1.047 -0.665,-2.931 -0.353,-5.315z" fill="#303030"></path>
        </g>
      </g>
    </g>
  </g>
</svg>